<svg width="116" height="45" viewBox="0 0 116 45" fill="none" xmlns="http://www.w3.org/2000/svg">
<g clip-path="url(#clip0_877_1528)">
<path d="M11.8223 0.000244141L3.18074 8.64378L10.7667 16.2297H0V28.4582H10.6391L3.12188 35.9833L11.7635 44.6366L25.4636 30.9365L39.1049 44.566L47.7484 35.9244L40.2901 28.4582H50.7997V16.2297H40.1606L47.6896 8.71246L39.0362 0.0610727L25.4636 13.6415L11.8223 0.000244141Z" fill="white"/>
<path d="M76.699 29.0606C76.4714 27.9245 75.5531 26.4724 73.1827 26.4724C71.3147 26.4724 69.7646 27.8754 69.7646 29.5825C69.7646 31.1032 70.781 32.1197 72.3135 32.4356L73.7263 32.7319C74.5955 32.9183 75.0684 33.454 75.0684 34.1054C75.0684 34.8942 74.4464 35.5084 73.2416 35.5084C71.7994 35.5084 71.0498 34.5312 70.9497 33.4736L69.3604 33.9269C69.5173 35.3887 70.6927 37.0487 73.2416 37.0487C75.5335 37.0487 76.7971 35.5457 76.7971 33.9681C76.7971 32.5357 75.8494 31.4015 74.0814 31.0444L72.6392 30.7383C71.8582 30.5715 71.4638 30.077 71.4638 29.4354C71.4638 28.6642 72.1742 27.9735 73.1925 27.9735C74.5347 27.9735 75.0606 28.9036 75.1567 29.5354L76.6971 29.0625L76.699 29.0606ZM81.2023 31.1837C82.2481 31.1837 82.723 31.8744 82.8721 32.4866L84.3438 31.9431C84.0573 30.8266 83.0389 29.6512 81.1827 29.6512C79.1969 29.6512 77.6566 31.2014 77.6566 33.3461C77.6566 35.4908 79.1969 37.0586 81.2317 37.0586C83.0507 37.0586 84.0769 35.8734 84.4027 34.7785L82.9604 34.2467C82.8035 34.7785 82.309 35.53 81.2317 35.53C80.1545 35.53 79.3048 34.7412 79.3048 33.3382C79.3048 31.9352 80.2035 31.1837 81.2023 31.1837ZM87.3754 32.7437C87.4048 31.8548 87.8993 31.1621 88.8078 31.1621C89.8458 31.1621 90.2206 31.8528 90.2206 32.7123V36.8408H91.861V32.4258C91.861 30.8933 91.0428 29.6591 89.3415 29.6591C88.6194 29.6591 87.8404 29.9161 87.3774 30.5283V26.4685H85.737V36.8388H87.3774V32.7397V32.7437H87.3754ZM96.7607 35.5594C95.7521 35.5594 94.8338 34.7883 94.8338 33.3382C94.8338 31.8881 95.7521 31.1445 96.7607 31.1445C97.7692 31.1445 98.6875 31.8842 98.6875 33.3382C98.6875 34.7922 97.779 35.5594 96.7607 35.5594ZM96.7607 29.6414C94.7062 29.6414 93.1855 31.2033 93.1855 33.3362C93.1855 35.4692 94.7062 37.0487 96.7607 37.0487C98.8151 37.0487 100.346 35.4888 100.346 33.3362C100.346 31.1837 98.8249 29.6414 96.7607 29.6414ZM104.819 35.5594C103.811 35.5594 102.893 34.7883 102.893 33.3382C102.893 31.8881 103.811 31.1445 104.819 31.1445C105.828 31.1445 106.746 31.8842 106.746 33.3382C106.746 34.7922 105.838 35.5594 104.819 35.5594ZM104.819 29.6414C102.765 29.6414 101.244 31.2033 101.244 33.3362C101.244 35.4692 102.755 37.0487 104.819 37.0487C106.884 37.0487 108.404 35.4888 108.404 33.3362C108.404 31.1837 106.894 29.6414 104.819 29.6414ZM111.497 26.4724H109.856V36.8427H111.497V26.4724Z" fill="white"/>
<path d="M112.03 20.3189C112.03 21.4059 112.919 22.3439 114.006 22.3439C115.093 22.3439 116 21.3961 116 20.3189C116 19.2416 115.091 18.3135 114.006 18.3135C112.921 18.3135 112.03 19.222 112.03 20.3189Z" fill="white"/>
<path d="M106.391 19.7066C105.286 19.7066 104.219 18.8962 104.219 17.2656C104.219 15.635 105.286 14.8442 106.391 14.8442C107.496 14.8442 108.563 15.6154 108.563 17.2656C108.553 18.9256 107.505 19.7066 106.391 19.7066ZM106.391 12.1011C103.526 12.1011 101.275 14.2438 101.275 17.2754C101.275 20.307 103.526 22.4714 106.391 22.4714C109.256 22.4714 111.506 20.307 111.506 17.2754C111.506 14.2438 109.273 12.1011 106.391 12.1011Z" fill="white"/>
<path d="M96.7783 9.40507C96.7783 10.3724 97.5495 11.1534 98.4854 11.1534C99.4214 11.1534 100.234 10.3646 100.234 9.40507C100.234 8.44555 99.4528 7.65674 98.4854 7.65674C97.5181 7.65674 96.7783 8.44555 96.7783 9.40507Z" fill="white"/>
<path d="M99.9707 12.3955H97.0273V22.1634H99.9707V12.3955Z" fill="white"/>
<path d="M95.6538 12.3955H91.8314L88.9077 15.6763V7.65674H85.9644V22.1653H88.9077V19.7655L89.8554 18.7275L92.1277 22.1653H95.7322L91.8902 16.5063L95.6538 12.3955Z" fill="white"/>
<path d="M79.5325 19.7066C78.4278 19.7066 77.3603 18.8962 77.3603 17.2656C77.3603 15.635 78.4278 14.8442 79.5325 14.8442C80.6372 14.8442 81.7046 15.6154 81.7046 17.2656C81.6948 18.9256 80.647 19.7066 79.5325 19.7066ZM79.5325 12.1011C76.6676 12.1011 74.417 14.2438 74.417 17.2754C74.417 20.307 76.6676 22.4714 79.5325 22.4714C82.3973 22.4714 84.648 20.307 84.648 17.2754C84.6382 14.2438 82.415 12.1011 79.5325 12.1011Z" fill="white"/>
<path d="M76.8458 10.6295V7.65674H65.3198V10.6295H69.5366V22.1653H72.5996V10.6295H76.8458Z" fill="white"/>
</g>
<defs>
<clipPath id="clip0_877_1528">
<rect width="116" height="44.6368" fill="white"/>
</clipPath>
</defs>
</svg>
